<svg xmlns="http://www.w3.org/2000/svg" version="1.1" xmlns:xlink="http://www.w3.org/1999/xlink" xmlns:svgjs="http://svgjs.com/svgjs" width="536" height="535"><svg width="536" height="535" viewBox="0 0 536 535" fill="none" xmlns="http://www.w3.org/2000/svg">
<circle cx="269" cy="267" r="267" fill="#EF5E5E"></circle>
<path fill-rule="evenodd" clip-rule="evenodd" d="M391.746 29.2175C363.259 14.3624 331.77 4.47605 298.426 0.70813V422H486.656C503.146 398.78 516.03 372.82 524.492 344.936H391.746V29.2175ZM313.376 531.175L312.213 529.259C308.6 523.841 303.984 516.616 298.365 507.585C292.746 498.554 286.324 488.319 279.099 476.88C272.075 465.44 264.75 453.7 257.124 441.659C239.463 413.563 219.495 381.653 197.219 345.931C206.852 341.115 215.983 335.194 224.613 328.17C233.443 320.945 241.169 312.617 247.792 303.185C254.615 293.552 260.034 282.614 264.048 270.372C268.061 258.13 270.068 244.484 270.068 229.432C270.068 185.08 256.622 152.067 229.73 130.393C202.838 108.518 161.195 97.5804 104.802 97.5804H60.3334C22.6203 143.752 0 202.734 0 267C0 340.606 29.673 407.281 77.7094 455.715V368.809H118.349L208.513 528.375C227.646 532.711 247.555 535 268 535C283.466 535 298.626 533.69 313.376 531.175ZM77.7094 292.95H102.996C128.885 292.95 147.448 287.832 158.687 277.597C169.925 267.161 175.545 251.909 175.545 231.84C175.545 210.969 169.524 196.118 157.483 187.288C145.441 178.457 126.777 174.042 101.491 174.042H77.7094V292.95Z" fill="#222831"></path>
</svg><style>@media (prefers-color-scheme: light) { :root { filter: none; } }
</style></svg>