<svg xmlns="http://www.w3.org/2000/svg" xml:space="preserve" viewBox="0 0 98.8 127.2"><path d="M94.1 26.2c-.1 0-1.3 1-2.6 1.3-.1 1-.6 2-1.5 2.7-.7.5-1.4.7-2.2.7-.3 0-.6 0-.9-.1-.7 1.2-2 2-2 2.1l-.2.2-.2-.2c-.1 0-1.3-.9-2.1-2.1-.3.1-.6.1-.8.1-.7 0-1.5-.2-2.2-.7-.9-.7-1.4-1.6-1.5-2.7-1.3-.3-2.6-1.3-2.6-1.3l-.2-.2.1-.3c0-.1.5-1.5 1.3-2.6-.5-.9-.7-2-.4-3 .3-.9 1-1.7 1.8-2.1.1 0 .2-.1.3-.1-.1-1.4.4-2.8.4-2.9l.1-.3h.3c.1 0 1.6 0 2.9.5.7-.8 1.7-1.3 2.8-1.3 1.1 0 2.1.5 2.8 1.3 1.3-.5 2.8-.5 2.9-.5h.3l.1.3c0 .1.5 1.5.4 2.9.1 0 .2.1.2.1.9.4 1.5 1.2 1.8 2.1.3 1.1.2 2.2-.4 3 .9 1.1 1.3 2.5 1.4 2.6l.1.3zm-5.6 53.5c-3 9.4-7.4 17.5-13.1 24.1-6.8 8-15.6 13.9-26 17.5-10.4-3.6-19.1-9.5-26-17.5-5.7-6.6-10.1-14.8-13.2-24.1C6 66.9 5.5 55.1 5.4 50.8c.8-.3 1.9-.7 3.2-1.2.9 2.7 2.9 5.2 6.2 7.5 4.4 3.1 9.1 4.4 9.3 4.5 0 0 9.6 2.8 15.3 4.5 3.6 1.2 3.5 3.8 2.9 5.7 0 .1-.1.2-.1.3-.1.2-.2.5-.3.7-.1.2-.2.5-.3.7-.2-.2-.5-2.3-4.5-4.3s-10-1.1-10.7-.7c-.3.2-.4.3-.1.6.2.1.4.2.5.4.9 1 .8 3.2 3.6 6.1.9.8 1.8 1.4 2.8 1.9 4 1.9 5.8 1 6.5.9 0 .1-.1.3-.1.4-6.1 10.7-8.5 19.9-8.8 27.6l1.2 1c2.4 2 4.9 3.8 7.6 5.5l2.2 1.3c2.4 1.3 4.9 2.4 7.5 3.4 7.2-2.7 13.5-6.5 18.9-11.5l1.1-1.1c-.8-.1-1.6-.1-2.4-.2-10.3-.4-13.3-4.5-11.5-10.7.1-.2.4-.8 0-1.2-.3-.3-.9-.1-1.1 0-10.6 5-13.6 20-13.6 20S40.3 101 48.6 93c8.3-8 15.3-6.4 15.6-6.4 3.4.8 4.1-1.2 4.3-2.8 0-.2.1-.4.3-.6 1.6-1.1 3.3-5.4 1.5-7-.9-.8-4.3-1.7-5.2-2-.8-.3-1.5-.5-2.2-.9-.4-.2-.8-.5-1-1-.6-1.8-2.3-2.7-2.7-3 3.5-.8 7.3-2.8 11.3-5.9 1.2-1 2.2-2 3-3.1.8-.9.8-1.8 2.2-2.4 2.9-1.4 2.8-2.9 2.3-3.4s-2.3.2-2.5.4c.1-.8 0-1.7-.1-2.5v-.3c0-.1 0-.2-.1-.4v-.1c-.6-2.9-2.2-5.4-3.9-7.2 10.5 2 18.3 5 21.5 6.3.2 4.5-.2 16.2-4.4 29M15.6 54.3c-2.1-1.3-3.7-3.3-4.5-5.6 1.3-.4 2.8-.9 4.4-1.4-.4 1.9-.6 4.6.1 7M4.5 26.2l-.2-.2.1-.3c0-.1.5-1.5 1.3-2.6-.5-.9-.7-2-.4-3 .3-.9 1-1.7 1.8-2.1.1 0 .2-.1.3-.1-.1-1.4.4-2.8.4-2.9l.1-.3h.3c.1 0 1.6 0 2.9.5.7-.8 1.7-1.3 2.8-1.3 1.1 0 2.1.5 2.8 1.3 1.3-.5 2.8-.5 2.9-.5h.3l.1.3c0 .1.5 1.5.4 2.9.1 0 .2.1.2.1.9.4 1.5 1.2 1.8 2.1.3 1.1.2 2.2-.4 3 .9 1.1 1.3 2.5 1.4 2.6l.1.3-.2.2c-.1 0-1.3 1-2.6 1.3-.1 1-.6 2-1.5 2.7-.7.5-1.4.7-2.2.7-.3 0-.6 0-.9-.1-.7 1.2-2 2-2 2.1l-.2.2-.2-.2c-.1 0-1.3-.9-2.1-2.1-.3.1-.6.1-.8.1-.7 0-1.5-.2-2.2-.7-.9-.7-1.4-1.6-1.5-2.7-1.3-.3-2.5-1.2-2.6-1.3m48 30.8c.1-.2 2.1-4.5 3.4-7.6 1.1-2.8-1.1-5.6-2.6-7.1 5.1.2 9.9.7 14.4 1.4.6.6 1.3 1.1 1.4 1.6-4.1-.4-6.3.5-6.1 2 .1.6 1 .8 1.8.6.7-.1 3.8-.4 6.1 1.3 1 .8 1.7 2.1 1.8 3.9v.6c.1 2.8-1.2 5.3-3.8 7.3-8.4 6.6-13.3 5.7-14 5.5-2.3-1.4-3.4-3.3-3.4-5.8.2-1.9 1-3.6 1-3.7m-4.1-8.4c.7.3 2.6 1.5 3.1 2.8.2.5-.2 1.1-.4 1.6-.7 1.4-1.2 2.6-1.3 2.7-.2.3-1.1 2.3-1.2 4.9-.1 1.7.2 3.9 1.8 5.9h-.3c-1.5-.1-3 .1-3.7.2-.7 0-1-.3-1.3-.7-.9-1.3-2.4-2.5-4.7-3.1-2.8-.8-6.5-1.8-9.5-2.6-5.9-1.6-4.3-5.1-5.7-5-1.4.1-.7 2.5-.1 3.4-2.4-.5-3.6-1.4-3.6-1.4-4.3-3.5-4.1-7.7-3.2-10.7 8.1-2.2 19.1-4.3 31.3-4.3h.4c1.4 1.1 4.2 3.8 3.2 6-.1.2-.1.3-.2.5-1.8-1.2-3.6-1.9-3.9-2.1-.8-.3-1.5-.4-1.7.2-.3.7.3 1.3 1 1.7M26.5 12.3c0-.1.1-.3.2-.4.1-.1.3-.1.4-.1l1.1.2V9.7c0-.2.1-.3.2-.4.1-.1.3-.1.5-.1l1 .3V7.8c0-.4.2-.8.6-1 .2-.1.4-.1.5-.1.2 0 .4.1.6.2.2.1.3.2.5.3.8.5 1.7 1.1 4.3 1.7.7.2 1.7.3 2.7.5 1.7.3 3.7.7 5.5 1.2 2.2.7 3.7 1.5 4.5 2.6.2.2.2.4.2.7 0-.2.1-.5.2-.7.9-1.1 2.3-1.9 4.5-2.6 1.8-.5 3.8-.9 5.5-1.2 1-.2 2-.4 2.7-.5 2.6-.6 3.5-1.2 4.3-1.7.2-.1.3-.2.5-.3.2-.1.4-.2.6-.2.2 0 .4 0 .5.1.3.2.6.6.6 1v1.7l1-.3c.2-.1.3 0 .5.1.1.1.2.2.2.4V12l1.1-.2c.1 0 .3 0 .4.1.1.1.2.2.2.4v18.5c0 1.8-1.3 2.5-4.6 2.3-11.2-.3-15.4 2.6-15.4 2.6 0 1-1.1 1.7-2.7 1.7-1.7 0-2.7-.6-2.7-1.7 0 0-4.2-2.9-15.4-2.6-3.3.2-4.6-.6-4.6-2.3V12.3ZM97 9.7C96.2 9.3 75.8 0 49.3 0 22.8 0 2.4 9.3 1.6 9.7l-1.6.8v42.8c.2 5.8 1.1 16.4 5 28.1 7.5 22.9 22.6 38.7 43.7 45.7.3.1.6.1.9.1.3 0 .6 0 .9-.1 21.1-7 36.2-22.8 43.5-45.7 3.7-11.6 4.6-22.2 4.8-28V10.6z" class="st0"/><path d="M11.6 18.8s-.3-.4-.3-1.2c0-1.5 1.2-2.6 2.6-2.6 1.5 0 2.6 1.2 2.6 2.6 0 .8-.3 1.2-.3 1.2l-1.1 1.5c-.2-.1-.5-.2-.8-.2V19c0-.2-.2-.4-.4-.4s-.4.2-.4.4v1.1c-.3 0-.5.1-.8.2zm4.9 2.9 1.1-.3c.2-.1.5.1.5.3.1.2 0 .5-.3.5l-1.1.3v.8l1.8.6s.5.2 1.3-.1c1.4-.5 2.1-1.9 1.7-3.3-.2-.7-.7-1.2-1.3-1.5-.6-.3-1.3-.4-2-.2-.8.2-1.1.6-1.1.7L16 21.1c.2.1.3.3.5.6m1.1-3.8c.1 0 .2-.1.3-.1.6-.2 1.1-.2 1.7-.1 0-.8-.2-1.6-.3-2.1-.4 0-1.3.1-2.1.4.3.5.4 1.1.4 1.7v.2m-7.6-.1c.1 0 .2.1.3.1v-.3c0-.6.1-1.2.4-1.7-.8-.3-1.6-.3-2.1-.3-.1.4-.3 1.3-.3 2.1.6-.1 1.1-.1 1.7.1m-2 6c.7.2 1.2.1 1.3.1l1.8-.6v-.8l-1.1-.3c-.2-.1-.3-.3-.3-.5.1-.2.3-.3.5-.3l1.1.3c.1-.3.3-.5.5-.7l-1.1-1.6s-.3-.4-1.1-.7c-.3-.1-.5-.1-.8-.1-.4 0-.8.1-1.2.3-.6.3-1.1.9-1.3 1.5-.4 1.4.4 2.9 1.7 3.4m4.9 5c.5-.6.5-1.1.5-1.2v-1.9c-.3-.1-.5-.1-.8-.3l-.7.9c-.1.1-.2.2-.3.2-.1 0-.2 0-.3-.1-.2-.1-.2-.4-.1-.6l.7-.9c-.2-.2-.4-.4-.5-.7l-1.8.6s-.5.2-1 .8c-.9 1.2-.6 2.8.6 3.7 1.2.9 2.9.7 3.7-.5m35.3 5.8V14c0-.6-2.8-2.5-9.1-3.3-6.3-.9-8.1-2.8-8.1-2.8v22.2c1.1.9 1.3.8 8.5 1.6 7.6.9 8.7 2.9 8.7 2.9m10.9-2.9c7.3-.8 7.5-.7 8.5-1.6V7.9s-1.8 1.9-8.1 2.8c-6.3.9-9.1 2.8-9.1 3.3v20.6s1.1-2 8.7-2.9M7.8 25.1c.1-.1.1-.2.2-.2-.1 0-.2 0-.3-.1-.6-.2-1.1-.5-1.5-.9-.5.6-.8 1.4-1 1.9.4.2 1.1.7 1.9.9.2-.6.4-1.1.7-1.6m6.3 4.3c-.1-.1-.1-.2-.2-.2 0 .1-.1.2-.2.2-.4.5-.8.9-1.3 1.1.5.7 1.1 1.2 1.5 1.5.4-.3 1-.8 1.5-1.5-.5-.2-1-.6-1.3-1.1m6-4.6c-.1 0-.2.1-.3.1l.2.2c.4.5.6 1 .7 1.6.8-.2 1.5-.7 1.9-.9-.2-.4-.5-1.2-1-1.9-.4.4-.9.7-1.5.9m-1.8.1c-.1 0-.1 0 0 0l-1.8-.6c-.1.2-.3.5-.5.7l.7.9c.1.2.1.5-.1.6-.1.1-.2.1-.3.1-.1 0-.3-.1-.3-.2l-.7-.9c-.2.1-.5.2-.8.3v2s0 .5.5 1.2c.9 1.2 2.5 1.4 3.7.6 1.2-.9 1.4-2.5.6-3.7-.6-.9-1-1-1-1m-4.4.2c1.2 0 2.2-1 2.2-2.2 0-1.2-1-2.2-2.2-2.2-1.2 0-2.2 1-2.2 2.2 0 1.2 1 2.2 2.2 2.2m75.1-.2-1.8-.6c-.1.2-.3.5-.5.7l.7.9c.1.2.1.5-.1.6-.1.1-.2.1-.3.1-.1 0-.3-.1-.3-.2l-.7-.9c-.2.1-.5.2-.8.3v2s0 .5.5 1.2c.9 1.2 2.5 1.4 3.7.6 1.2-.9 1.4-2.5.6-3.7-.5-.9-1-1-1-1m3.2-4.4c-.2-.7-.7-1.2-1.3-1.5-.6-.3-1.3-.4-2-.2s-1.1.6-1.1.7l-1.1 1.6c.2.2.4.4.5.7l1.1-.3c.2-.1.5 0 .5.3.1.2-.1.5-.3.5l-1.1.4v.8l1.8.6s.5.1 1.3-.1c1.4-.7 2.2-2.2 1.7-3.5m-7.4 8.9c-.1-.1-.1-.2-.2-.2 0 .1-.1.2-.2.2-.4.5-.8.9-1.3 1.1.5.7 1.1 1.2 1.5 1.5.4-.3 1-.8 1.5-1.5-.5-.2-.9-.6-1.3-1.1m6.1-4.6c-.1 0-.2.1-.3.1l.2.2c.4.5.6 1 .7 1.6.8-.2 1.5-.7 1.9-.9-.2-.4-.5-1.2-1-1.9-.5.4-1 .7-1.5.9m-7.2 4c.5-.6.5-1.1.5-1.2v-1.9c-.3-.1-.5-.1-.8-.3l-.7.9c-.1.1-.2.2-.3.2-.1 0-.2 0-.3-.1-.2-.1-.2-.4-.1-.6l.7-.9c-.2-.2-.4-.4-.5-.7l-1.8.6s-.5.2-1 .8c-.9 1.2-.6 2.8.6 3.7 1.2.9 2.8.7 3.7-.5m-1.2-5.9c0 1.2 1 2.2 2.2 2.2 1.2 0 2.2-1 2.2-2.2 0-1.2-1-2.2-2.2-2.2-1.2 0-2.2 1-2.2 2.2m-2.5 1 1.8-.6v-.8l-1.1-.3c-.2-.1-.3-.3-.3-.5.1-.2.3-.3.5-.3l1.1.3c.1-.2.3-.5.5-.7l-1.1-1.6s-.3-.4-1.1-.7c-.3-.1-.5-.1-.8-.1-.4 0-.8.1-1.2.3-.6.3-1.1.9-1.3 1.5-.5 1.4.3 2.9 1.7 3.3.8.3 1.3.2 1.3.2m3.4-3.5c.2-.1.5-.2.8-.2v-1.1c0-.2.2-.4.4-.4s.4.2.4.4v1.1c.3 0 .5.1.8.2l1.1-1.5s.3-.4.3-1.2c0-1.5-1.2-2.6-2.6-2.6-1.5 0-2.6 1.2-2.6 2.6 0 .8.3 1.2.3 1.2zm4.9-2.5c.1 0 .2-.1.3-.1.6-.2 1.1-.2 1.7-.1 0-.8-.2-1.6-.3-2.1-.4 0-1.3.1-2.1.4.3.5.4 1.1.4 1.7v.2m-11.3 6c-.5.6-.8 1.4-1 1.9.4.2 1.1.7 1.9.9.1-.6.3-1.1.7-1.6.1-.1.1-.2.2-.2-.1 0-.2 0-.3-.1-.6-.2-1.1-.5-1.5-.9m3.7-6.1c.1 0 .2.1.3.1v-.3c0-.6.1-1.2.4-1.7-.8-.3-1.6-.3-2.1-.3-.1.4-.3 1.3-.3 2.1.6-.1 1.2-.1 1.7.1" class="st0"/></svg>