<svg xmlns="http://www.w3.org/2000/svg" xml:space="preserve" fill-rule="evenodd" clip-rule="evenodd" image-rendering="optimizeQuality" shape-rendering="geometricPrecision" text-rendering="geometricPrecision" viewBox="0 0 123.8225 104.3469"><path d="M56.7691 45.7277V1.2062c5.1516.119 10.2834.852 15.2764 2.2192-.5152 3.0513.7925 6.1025 3.3287 7.866L60.6328 46.54c-1.2681-.4161-2.556-.6737-3.8637-.8124Zm-3.8869 0V1.2656c-7.014.3566-13.8696 2.0805-20.2298 5.0723l16.4851 40.1624c1.2086-.3961 2.4569-.6538 3.7447-.7726zm-6.7234 1.8909L29.7531 7.6741c-6.3009 3.2298-11.9873 7.5888-16.7426 12.8394l29.5224 29.5224c1.1096-.9312 2.3182-1.7435 3.626-2.4173zM10.9663 22.9313c-4.3392 5.1516-7.6282 11.1155-9.6691 17.5154l36.695 15.3557a18.0115 18.0115 0 0 1 2.3381-3.507l-29.364-29.364zm25.7378 35.823L.5243 43.6166c-.8323 6.4593-.6737 12.9978.4754 19.3976h34.8524c.1189-1.4463.4161-2.873.852-4.2599zm-.8404 7.4586H1.903c2.0606 5.3498 4.7355 10.4221 7.9454 15.1575L36.6761 70.354c-.4161-1.3474-.6934-2.7343-.8124-4.1411zm4.5173 10.5052c-.951-1.1095-1.7634-2.3181-2.4173-3.626L12.0672 83.7125c3.606 3.5863 7.5887 6.7367 11.8684 9.4512L40.381 76.7182zM60.9713 100.46c-.3765-3.0711 1.0302-6.063 3.6457-7.7274L60.5155 82.588c-6.2017 1.922-12.9582.5548-17.9116-3.6457l-15.851 15.851c10.4815 5.5677 22.5084 7.5688 34.2184 5.6667zm2.3111-19.0145 4.1212 10.2239c3.1901-.5349 6.3603.9115 8.0642 3.6458a128.8601 128.8601 0 0 0 5.2309-2.6155l-13.6913-13.711c-1.1492.9708-2.3975 1.803-3.725 2.4568zm49.2692-11.2405c-1.1492-1.1294-1.9417-2.5758-2.2588-4.1807H73.6571c-.317 3.943-1.8822 7.6877-4.4184 10.6994l14.365 14.3649c10.4418-5.7857 20.1506-12.7997 28.9478-20.8837zM91.8565 14.9474c1.7239 1.7237 3.3288 3.5467 4.8346 5.4685L66.9704 50.1365c-1.0898-.9114-2.2587-1.684-3.507-2.338l14.7414-35.2486c2.7343.5548 5.5676-.3963 7.4499-2.4768 2.1795 1.4662 4.26 3.1108 6.2017 4.8743z" class="fil0"/><g transform="translate(.0006)"><ellipse cx="68.6872" cy="99.552" class="fil1" rx="4.7751" ry="4.7949"/><circle cx="119.027" cy="63.8342" r="4.7949" class="fil1"/><circle cx="79.7374" cy="4.7948" r="4.7949" class="fil1"/></g><path d="M107.8246 41.1055a161.5272 161.5272 0 0 0-5.8847-12.4233 102.2649 102.2649 0 0 0-3.4476-5.647L69.1879 52.34c.9312 1.1294 1.7435 2.338 2.3974 3.626l36.2394-14.8604zm1.261 2.9414c1.7633 4.5769 3.3682 9.2331 4.7553 13.9489-1.7833 1.1294-3.0513 2.9522-3.507 5.0326H73.6783c-.1188-1.4067-.3764-2.7936-.8123-4.141l36.2196-14.8404z" class="fil0"/></svg>